<?xml version="1.0" encoding="UTF-8"?>
<svg width="26px" height="26px" viewBox="0 0 26 26" version="1.1" xmlns="http://www.w3.org/2000/svg" xmlns:xlink="http://www.w3.org/1999/xlink">
    <!-- Generator: Sketch 56.2 (81672) - https://sketch.com -->
    <title>facebook-square</title>
    <desc>Created with Sketch.</desc>
    <g id="facebook-square" stroke="none" stroke-width="1" fill="none" fill-rule="evenodd">
        <path d="M23.2142857,0 L2.78571429,0 C1.24720677,0 0,1.24720677 0,2.78571429 L0,23.2142857 C0,24.7527932 1.24720677,26 2.78571429,26 L10.7511161,26 L10.7511161,17.1605804 L7.09486607,17.1605804 L7.09486607,13 L10.7511161,13 L10.7511161,9.82892857 C10.7511161,6.22200893 12.8984375,4.22964286 16.1873214,4.22964286 C17.7624107,4.22964286 19.4094643,4.51053571 19.4094643,4.51053571 L19.4094643,8.05071429 L17.5946875,8.05071429 C15.8066071,8.05071429 15.2488839,9.16035714 15.2488839,10.2984375 L15.2488839,13 L19.2405804,13 L18.6021875,17.1605804 L15.2488839,17.1605804 L15.2488839,26 L23.2142857,26 C24.7527932,26 26,24.7527932 26,23.2142857 L26,2.78571429 C26,1.24720677 24.7527932,0 23.2142857,0 L23.2142857,0 Z" id="Path" fill="#E3E4E8" fill-rule="nonzero"></path>
    </g>
</svg>