<?xml version="1.0" encoding="UTF-8"?>
<svg width="31px" height="50px" viewBox="0 0 31 50" version="1.1" xmlns="http://www.w3.org/2000/svg" xmlns:xlink="http://www.w3.org/1999/xlink">
    <!-- Generator: sketchtool 56.2 (101010) - https://sketch.com -->
    <title>949FB870-E711-4FEF-AEAF-19E14682C46D</title>
    <desc>Created with sketchtool.</desc>
    <g id="Page-1" stroke="none" stroke-width="1" fill="none" fill-rule="evenodd">
        <g id="Landing-page" transform="translate(-25.000000, -47.000000)" fill-rule="nonzero">
            <g id="header-main" transform="translate(0.000000, 10.000000)">
                <g id="logo-gradient" transform="translate(20.000000, 37.000000)">
                    <g id="logo" transform="translate(5.000000, 0.000000)">
                        <path d="M27.7384172,37.3815404 L2.72504599,37.3817329 C1.97232044,37.3817387 1.2912525,37.7668571 0.798063706,38.3889668 C0.304874914,39.0110764 -0.000434726416,39.8701773 0.000162863677,40.8189077 L0.000102898798,43.2124108 L3.55271368e-14,43.4794675 C-0.000629733563,49.1741287 3.65940065,49.7909007 8.1745496,49.790866 L22.2884548,49.7907573 C24.3263828,49.7907416 30.41435,48.6772176 30.3592726,43 C30.3464974,41.6831699 30.3622576,42.6702346 30.3592726,42 C30.3493886,39.7806685 30.3592656,41.4585118 30.3592726,40 C30.3592818,38.10102 29.2432661,37.3822884 27.7384172,37.3815404 Z" id="Shape" fill="#78C885"></path>
                        <path d="M26.5,9 C26.5,9 23,14.790625 23,17 C23,19.209375 24.5673437,21 26.5,21 C28.4326562,21 30,19.209375 30,17 C30,14.790625 26.5,9 26.5,9 Z" id="Path" fill="#258D79"></path>
                        <path d="M15,0 C15,0 10,8.6859375 10,12 C10,15.3140625 12.2390625,18 15,18 C17.7609375,18 20,15.3140625 20,12 C20,8.6859375 15,0 15,0 Z" id="Path-Copy" fill="#258D79"></path>
                        <path d="M4.5,9 C4.5,9 1,14.790625 1,17 C1,19.209375 2.56734375,21 4.5,21 C6.43265625,21 8,19.209375 8,17 C8,14.790625 4.5,9 4.5,9 Z" id="Path-Copy-2" fill="#258D79"></path>
                        <path d="M28.301374,14 C28.301374,14 27.8781344,16.9333287 28.0770891,18.4697198 C28.2198797,19.5723938 29.1454247,18.8506119 28.948818,17.2692897 C28.7477048,15.6517207 28.301374,14 28.301374,14 Z" id="Path" fill="#FFFFFF"></path>
                        <path d="M2.0257192,13 C2.0257192,13 1.89814525,14.9801324 2.21125363,16.3390273 C2.43597276,17.3143115 3.24212746,17.2562988 2.92848103,15.8563803 C2.60764527,14.4243732 2.0257192,13 2.0257192,13 Z" id="Path-Copy-3" fill="#FFFFFF" transform="translate(2.500000, 15.000000) rotate(20.000000) translate(-2.500000, -15.000000) "></path>
                        <path d="M16,4 C16,4 16.4154715,8.12509778 17.4518555,10.8104852 C18.1956724,12.7377985 19.6880865,12.3255012 18.6371302,9.55580689 C17.5620841,6.72262633 16,4 16,4 Z" id="Path" fill="#FFFFFF"></path>
                    </g>
                    <path d="M33.6232309,21.999997 C32.2115677,22.007224 27.0602607,22.3422229 23.2282561,26.6110968 C21.61826,28.2572021 20.6343735,30.1277511 20,31.8810783 C19.3656265,30.1277511 18.38174,28.2572021 16.7717439,26.6110968 C12.9397393,22.3422229 7.78843231,22.007224 6.37676906,21.999997 C6.16239458,21.9988907 5.99808942,22.1888901 6.00001678,22.4344448 C6.01121439,23.9855504 6.34711636,29.4421979 10.3152318,33.5066281 C14.3995274,38.0521677 18.4444482,37.9999729 20,37.9999729 C21.5555518,37.9999729 25.5995003,38.0527233 29.6847682,33.5066281 C33.6533698,29.4416424 33.9887856,23.9855504 33.9999832,22.4344448 C34.0019106,22.1888901 33.8376054,21.9988907 33.6232309,21.999997 Z M23.8390654,28.0274179 C23.8834158,27.9842842 23.9426044,27.9703776 23.9999952,27.9357051 C23.29073,24.7370132 21.7686571,21.8990248 19.8268062,20.1218225 C19.6494899,19.9593925 19.3513742,19.9593925 19.1736264,20.1218225 C17.2326384,21.8976637 15.7105655,24.7329298 15.000006,27.9288994 C15.8788219,28.4597461 16.7472835,29.1149108 17.554914,29.942941 C18.2900617,30.6356739 19.3535625,32.1418999 19.9090743,32.9999804 C20.4621632,32.1447273 23.1817977,28.6666536 23.8390654,28.0274179 Z" id="Shape" fill="#75C880"></path>
                </g>
            </g>
        </g>
    </g>
</svg>